<?xml version="1.0" encoding="UTF-8"?>
<svg id="Layer_1" data-name="Layer 1" xmlns="http://www.w3.org/2000/svg" viewBox="0 0 32 32">
  <defs>
    <style>
      .cls-1 {
        fill: #ff5350;
      }
    </style>
  </defs>
  <path class="cls-1" d="M31.8,18.5c-1.19,7.65-7.81,13.5-15.8,13.5S1.39,26.15.2,18.5h6.84c1.1,4.02,4.76,6.82,8.96,6.82s7.86-2.8,8.96-6.82h6.84Z"/>
  <path class="cls-1" d="M31.8,13.5h-6.84c-1.1-4.02-4.76-6.82-8.96-6.82s-7.86,2.8-8.96,6.82H.2C1.39,5.85,8.01,0,16,0s14.61,5.85,15.8,13.5Z"/>
  <path class="cls-1" d="M21.32,16c0,.46-.06.91-.18,1.33-.58,2.3-2.66,3.99-5.14,3.99s-4.56-1.69-5.14-3.99c-.12-.42-.18-.87-.18-1.33s.06-.91.18-1.33c.58-2.3,2.66-3.99,5.14-3.99s4.56,1.69,5.14,3.99c.12.42.18.87.18,1.33Z"/>
  <path class="cls-1" d="M16,21.32c-2.48,0-4.56-1.69-5.14-3.99-.12-.42-.18-.87-.18-1.33s.06-.91.18-1.33c.58-2.3,2.66-3.99,5.14-3.99s4.56,1.69,5.14,3.99c.12.42.18.87.18,1.33s-.06.91-.18,1.33c-.58,2.3-2.66,3.99-5.14,3.99Z"/>
</svg>